<?xml version="1.0" encoding="utf-8"?>
<!-- Generator: Adobe Illustrator 21.0.0, SVG Export Plug-In . SVG Version: 6.00 Build 0)  -->
<svg version="1.1" id="Layer_1" xmlns="http://www.w3.org/2000/svg" xmlns:xlink="http://www.w3.org/1999/xlink" x="0px" y="0px"
	 viewBox="0 0 844 224" style="enable-background:new 0 0 844 224;" xml:space="preserve">
<style type="text/css">
	.st0{fill:#9B9F46;}
	.st1{fill:url(#SVGID_1_);}
	.st2{fill:url(#SVGID_2_);}
	.st3{fill:#72969F;}
</style>
<g>
	<path d="M145.5,106.5h37c0,11.9-2.4,21.6-7.1,29.3c-4.8,7.7-11,13.3-18.7,16.7c-7.7,3.4-16.2,5.2-25.5,5.2
		c-10.1,0-18.7-1.7-25.8-5.1c-7.1-3.4-12.7-7.9-16.7-13.3c-4.1-5.5-7-11.2-8.7-17.3c-1.7-6.1-2.6-11.9-2.6-17.6c0-6.3,1-12.6,3-18.8
		c2-6.2,5-11.8,9.1-16.9c4.1-5.1,9.4-9.1,15.9-12.2c6.6-3.1,14.3-4.6,23.2-4.6c7.3,0,13.7,1,19.3,3.1c5.6,2.1,11,5.4,16.1,9.9V53.5
		h13v33.6h-13c-2-4.3-4.7-8-8.2-11.3c-3.4-3.3-7.4-5.8-11.9-7.6c-4.5-1.8-9.2-2.7-14.1-2.7c-6.9,0-13.1,1.6-18.6,4.9
		c-5.4,3.3-9.7,7.9-12.7,13.8c-3,5.9-4.5,12.7-4.5,20.3c0,7.4,1.6,14.2,4.8,20.2c3.2,6,7.6,10.7,13.3,14.1
		c5.7,3.4,12.1,5.1,19.2,5.1c8.4,0,15.6-2.3,21.7-6.9c6.1-4.6,9.8-10.5,10.9-17.6h-18.4V106.5z"/>
</g>
<g>
	<path d="M384.4,143.5v12.4h-26.9v-10.6c-7.1,7.8-15.4,11.7-25.1,11.7c-5.6,0-11.1-1.3-16.4-4c-5.3-2.6-9.7-6.7-13.1-12.2
		s-5.1-12.2-5.1-20.2c0-7,1.5-13.4,4.6-19.3c3.1-5.9,7.3-10.5,12.6-13.8c5.3-3.3,11.2-5,17.7-5c4.9,0,9.3,0.9,13.3,2.8
		c4,1.9,7.8,4.8,11.4,8.6V65.9h-13.4V53.5h27.5v90H384.4z M312.8,120.2c0,3.5,0.5,6.8,1.6,9.9c1.1,3,2.6,5.6,4.6,7.8
		c2,2.2,4.4,3.8,7.2,5c2.8,1.2,5.7,1.7,8.9,1.7c4.3,0,8.2-1.1,11.6-3.2c3.4-2.2,6.1-5.1,8-8.9c1.9-3.8,2.9-8.1,2.9-12.9
		c0-3.5-0.6-6.8-1.7-9.8c-1.1-3-2.7-5.5-4.7-7.7c-2-2.1-4.3-3.8-7.1-4.9c-2.7-1.2-5.8-1.8-9.2-1.8c-4.1,0-7.9,1.1-11.2,3.2
		c-3.4,2.1-6,5.1-7.9,8.9C313.8,111.2,312.8,115.5,312.8,120.2z"/>
	<path d="M460.8,123.7h-59.2c1,6.9,3.6,12.3,7.9,16.1c4.2,3.8,9.6,5.7,16.2,5.7c4.6,0,8.9-1,13-3c4-2,7.3-4.9,9.9-8.5l12.2,5.4
		c-2.6,4.1-5.7,7.5-9.2,10.2c-3.5,2.7-7.6,4.8-12,6.2c-4.5,1.4-9.2,2.2-14.1,2.2c-7.4,0-14.1-1.6-20.1-4.8
		c-6-3.2-10.7-7.7-14.1-13.5c-3.4-5.8-5-12.2-5-19.3c0-7.4,1.8-14,5.3-19.8c3.5-5.8,8.2-10.3,13.8-13.4c5.7-3.1,11.6-4.7,17.8-4.7
		c4.9,0,9.6,0.9,14.1,2.8c4.5,1.8,8.5,4.5,12.1,8.1c3.5,3.5,6.3,7.9,8.3,13C459.8,111.5,460.8,117.3,460.8,123.7z M402,113.5h44.6
		c-1.1-5.6-3.8-10.3-8.2-14c-4.4-3.7-9.4-5.5-14.9-5.5c-3.6,0-6.9,0.8-9.9,2.4c-3,1.6-5.5,3.9-7.5,6.8
		C404,106.1,402.7,109.5,402,113.5z"/>
	<path d="M468.6,155.9v-24.5h12.4v2.6c0.6,3.5,2.4,6.2,5.4,8.3c3,2,6.8,3,11.4,3c4.4,0,7.9-0.8,10.5-2.4c2.6-1.6,4-3.7,4-6.4
		c0-3-1.2-5.1-3.5-6.3c-2.3-1.2-6.2-2.2-11.7-3.1c-5.5-0.8-9.9-1.8-13.4-3c-3.5-1.1-6.7-3.2-9.6-6.1c-1.7-1.7-3-3.8-4-6.2
		c-1-2.4-1.5-4.8-1.5-7.3c0-4,1.1-7.6,3.2-10.8c2.1-3.2,5.1-5.7,8.8-7.5c3.7-1.8,8-2.7,12.7-2.7c6.6,0,12.3,1.3,17.1,4v-2.9h12.2
		v23.7h-12.2V104c-3.8-5.9-9.3-8.8-16.4-8.8c-3.7,0-6.7,0.8-9,2.4c-2.3,1.6-3.4,3.7-3.4,6.4c0,2.7,1.2,4.5,3.5,5.5
		c2.4,1,6.3,1.9,11.8,2.8c5.5,0.8,10.1,1.8,14,2.9c3.8,1.1,7,3,9.5,5.5c1.9,1.9,3.4,4.1,4.4,6.7c1,2.6,1.5,5.2,1.5,8
		c0,4.2-1.1,7.9-3.4,11.2c-2.3,3.3-5.4,5.9-9.5,7.7c-4.1,1.8-8.8,2.7-14.1,2.7c-7.3,0-13.5-1.7-18.5-5.1v3.9H468.6z"/>
	<path d="M541.6,143.5V97.1h-11.2V84.7h25.3v58.8h11.2v12.4h-36.5v-12.4H541.6z M548.3,52.1c1.5,0,2.9,0.4,4.2,1.1
		c1.3,0.7,2.3,1.7,3.1,3.1c0.8,1.3,1.2,2.7,1.2,4.3c0,2.3-0.8,4.3-2.5,5.9c-1.7,1.6-3.6,2.4-5.9,2.4c-2.3,0-4.3-0.8-5.9-2.5
		c-1.7-1.7-2.5-3.6-2.5-5.9c0-2.4,0.8-4.4,2.5-6C544,52.9,546,52.1,548.3,52.1z"/>
	<path d="M658.1,84.7v12.4h-12.7v59.4c0,7.9-1.9,14.3-5.8,19.2c-3.9,5-8.7,8.5-14.4,10.6c-5.7,2.1-11.6,3.2-17.6,3.2
		c-3.5,0-6.8-0.3-9.8-0.9c-3.1-0.6-6-1.6-8.8-2.9s-5.9-3.2-9.1-5.5l9-10.3c6.1,4.9,12.7,7.4,20,7.4c5.5,0,10.6-1.6,15.4-4.8
		c4.8-3.2,7.2-8.3,7.2-15.4v-10.7h-0.3c-1.7,2.3-4,4.3-6.8,6.2c-2.8,1.8-5.8,3.2-8.9,4.2c-3.1,0.9-6.3,1.4-9.5,1.4
		c-6.6,0-12.4-1.6-17.6-4.7c-5.2-3.2-9.3-7.5-12.3-13.1c-3-5.6-4.4-11.8-4.4-18.7c0-7,1.5-13.5,4.6-19.3c3.1-5.8,7.3-10.4,12.6-13.7
		s11.2-5,17.7-5c9.4,0,17.7,3.8,24.9,11.3V84.7H658.1z M586.7,121.1c0,4.7,0.9,8.9,2.8,12.7c1.9,3.7,4.5,6.6,7.8,8.7
		c3.4,2.1,7.2,3.1,11.5,3.1c4.3,0,8.2-1.1,11.7-3.2c3.5-2.1,6.2-5.1,8.2-8.8c2-3.8,3-7.9,3-12.5c0-4.6-1-8.7-3-12.5
		c-2-3.8-4.7-6.7-8.2-8.8c-3.5-2.1-7.3-3.2-11.5-3.2c-4.2,0-8,1-11.4,3.1s-6.1,5-8.1,8.8C587.6,112.4,586.7,116.6,586.7,121.1z"/>
	<path d="M686.4,84.7v8.7c4.9-3.6,9.1-6.1,12.8-7.6c3.7-1.5,7.4-2.2,11.2-2.2c5.4,0,9.8,1.7,13.3,5.1c3.4,3.4,5.2,8.4,5.2,15.2v39.7
		h12.1v12.4h-26.1v-46.5c0-4.5-0.7-7.7-2-9.8c-1.3-2.1-3.4-3.1-6.2-3.1c-1.8,0-3.9,0.4-6.2,1.1c-2.3,0.7-4.7,1.8-7.1,3.2
		c-2.4,1.4-4.7,3-6.9,4.8v38h12.1v12.4h-38.2v-12.4h12.1V97.1h-12.4V84.7H686.4z"/>
</g>
<path class="st0" d="M290.3,103.7c-1.8-4.6-4.4-8.7-7.7-12.1c-3.3-3.4-7.3-6-11.8-7.9c-4.6-1.9-9.5-2.8-14.8-2.8
	c-5.3,0-10.3,0.9-14.8,2.8c-4.5,1.8-8.5,4.5-11.8,7.9c-3.3,3.4-5.9,7.4-7.7,12.1c-1.8,4.6-2.7,9.7-2.7,15.1c0,5.4,0.9,10.4,2.7,15
	c1.8,4.6,4.4,8.7,7.8,12.1c3.4,3.4,7.3,6,11.9,7.8c4.6,1.8,9.5,2.7,14.7,2.7c5.3,0,10.3-0.9,14.8-2.8c4.6-1.9,8.5-4.5,11.9-7.9
	c3.3-3.4,5.9-7.4,7.7-12c1.8-4.6,2.7-9.6,2.7-15C293,113.4,292.1,108.3,290.3,103.7z M275.1,131.1c-2,3.7-4.6,6.6-8,8.8
	c-3.4,2.1-7.1,3.2-11.2,3.2c-4.1,0-7.8-1.1-11.1-3.2c-3.4-2.1-6-5.1-8-8.8c-1.9-3.7-2.9-7.8-2.9-12.3c0-4.6,1-8.7,2.9-12.5
	c1.9-3.7,4.6-6.7,8-8.8c3.4-2.2,7.1-3.2,11.1-3.2c4.1,0,7.8,1.1,11.2,3.2c3.4,2.1,6,5.1,8,8.8c2,3.8,2.9,7.9,2.9,12.5
	C278,123.3,277,127.4,275.1,131.1z"/>
<radialGradient id="SVGID_1_" cx="240.1123" cy="91.9641" r="11.1248" gradientTransform="matrix(0.555 -0.8319 1.9201 1.281 -69.7268 173.8924)" gradientUnits="userSpaceOnUse">
	<stop  offset="0.4286" style="stop-color:#000000"/>
	<stop  offset="1" style="stop-color:#9B9F46;stop-opacity:0"/>
</radialGradient>
<path class="st1" d="M236.8,106.3c1.9-3.7,4.6-6.7,8-8.8c3.4-2.2,7.1-3.2,11.1-3.2c1.9,0,3.7,0.3,5.4,0.7c0-0.4,0.1-0.7,0.1-1.1
	c0-4.9-1.9-9.5-5.1-12.9c-0.1,0-0.2,0-0.3,0c-5.3,0-10.3,0.9-14.8,2.8c-4.5,1.8-8.5,4.5-11.8,7.9c-2.9,3-5.2,6.5-7,10.4
	c2.4,4.9,6.8,8.8,12.2,10.5C235.1,110.3,235.8,108.3,236.8,106.3z"/>
<radialGradient id="SVGID_2_" cx="239.9148" cy="97.3795" r="11.1248" gradientTransform="matrix(0.555 0.8319 1.9201 -1.281 -80.2127 70.4628)" gradientUnits="userSpaceOnUse">
	<stop  offset="0.4286" style="stop-color:#000000"/>
	<stop  offset="1" style="stop-color:#9B9F46;stop-opacity:0"/>
</radialGradient>
<path class="st2" d="M236.6,130.9c1.9,3.7,4.6,6.7,8,8.8c3.4,2.2,7.1,3.2,11.1,3.2c1.9,0,3.7-0.3,5.4-0.7c0,0.4,0.1,0.7,0.1,1.1
	c0,4.9-1.9,9.5-5.1,12.9c-0.1,0-0.2,0-0.3,0c-5.3,0-10.3-0.9-14.8-2.8c-4.5-1.8-8.5-4.5-11.8-7.9c-2.9-3-5.2-6.5-7-10.4
	c2.4-4.9,6.8-8.8,12.2-10.5C234.9,127,235.6,129,236.6,130.9z"/>
<path class="st3" d="M258.7,103.7c-1.8-4.6-4.4-8.7-7.7-12.1c-3.3-3.4-7.3-6-11.8-7.9c-4.6-1.9-9.5-2.8-14.8-2.8
	c-5.3,0-10.3,0.9-14.8,2.8c-4.5,1.8-8.5,4.5-11.8,7.9c-3.3,3.4-5.9,7.4-7.7,12.1c-1.8,4.6-2.7,9.7-2.7,15.1c0,5.4,0.9,10.4,2.7,15
	c1.8,4.6,4.4,8.7,7.8,12.1c3.4,3.4,7.3,6,11.9,7.8c4.6,1.8,9.5,2.7,14.7,2.7c5.3,0,10.3-0.9,14.8-2.8s8.5-4.5,11.9-7.9
	c3.3-3.4,5.9-7.4,7.7-12c1.8-4.6,2.7-9.6,2.7-15C261.4,113.4,260.5,108.3,258.7,103.7z M243.5,131.1c-2,3.7-4.6,6.6-8,8.8
	c-3.4,2.1-7.1,3.2-11.2,3.2c-4.1,0-7.8-1.1-11.1-3.2c-3.4-2.1-6-5.1-8-8.8c-1.9-3.7-2.9-7.8-2.9-12.3c0-4.6,1-8.7,2.9-12.5
	c1.9-3.7,4.6-6.7,8-8.8c3.4-2.2,7.1-3.2,11.1-3.2c4.1,0,7.8,1.1,11.2,3.2c3.4,2.1,6,5.1,8,8.8c2,3.8,2.9,7.9,2.9,12.5
	C246.4,123.3,245.4,127.4,243.5,131.1z"/>
</svg>
